<svg xmlns="http://www.w3.org/2000/svg" viewBox="0 0 150.52 291.4"><defs><style>.cls-1{isolation:isolate;}.cls-2{fill:#e6e7e8;}.cls-15,.cls-17,.cls-2{mix-blend-mode:multiply;}.cls-11,.cls-3{fill:#fff;}.cls-3{opacity:0.3;}.cls-4{fill:#eeba9b;}.cls-5{fill:#fcc3a2;}.cls-6{fill:#e8b597;}.cls-7{fill:#522206;}.cls-8{fill:#300800;}.cls-9{fill:#532207;}.cls-10{fill:#3c2415;}.cls-12{fill:#fab59b;}.cls-13{fill:#d35569;}.cls-14{fill:#58260b;}.cls-16,.cls-17{fill:#bcbec0;}.cls-18{fill:#b9e5fb;}.cls-19{fill:#602b11;}.cls-20{fill:#d1d3d4;}.cls-21{fill:#ccecfc;}.cls-22{fill:#e27f72;}.cls-23{fill:#e5a9a3;}.cls-24{fill:#e6cacc;}</style></defs><g class="cls-1"><g id="Layer_2" data-name="Layer 2"><g id="Capa_1" data-name="Capa 1"><path class="cls-2" d="M150,283.58c0,4.32-22.82,7.82-51,7.82s-51-3.5-51-7.82,22.82-7.82,51-7.82S150,279.26,150,283.58Z"/><path class="cls-3" d="M73.79,9.47S25.15,101.74,20.15,230c0,0,64.43,28.4,130.37.08,0,0,.63-106.4-53.78-220.57Z"/><path class="cls-3" d="M57,210.56a546.2,546.2,0,0,1-1-58.78c.6-18.17,1.73-36.33,4-54.3,2.17-17.33,5.14-34.61,9.81-51.17,3.65-13,8.32-25.68,14.81-36.8l-10.79,0S25.15,101.74,20.15,230a187.07,187.07,0,0,0,40.25,10.6C58.88,230.7,57.76,220.65,57,210.56Z"/><path class="cls-4" d="M10.9,68.69,44,83.62l29.94-5.06s12.22.88,9.27,9.71c-1.8,5.56-11,3.78-11,3.78L44,94,12.79,75.34,7.7,73.12c-2.82,0-7.7-1.54-7.7-1.54,0-2.31,4.41-3.53,4.41-3.53S9.63,66.76,10.9,68.69Z"/><path class="cls-5" d="M84.89,52.41a31.25,31.25,0,0,0,0,15.93H73s.87-5.21-2-13.62Z"/><path class="cls-6" d="M75.37,68.34c-.69-3.94-1.31-7,1-10.24,1.13-1.58,3.48-2.14,5.35-3.34l-10.7,0c2.88,8.41,2,13.62,2,13.62Z"/><path class="cls-7" d="M103.74,16.37c-3,2.6-8.32,1.38-11.87-2.73s-4-9.55-1-12.15S99.21.11,102.77,4.22,106.75,13.77,103.74,16.37Z"/><path class="cls-5" d="M92.82,46.36c11.31-14.95,5.88-29.49,5.88-29.49C91.38-.19,71.68,6,71.68,6,57.5,9.91,57,17.85,57,17.85s-3,5.51-1.5,15.38c0,0,.94,4.83-4.15,8a1.22,1.22,0,0,0-.62,1.41,4.62,4.62,0,0,0,3.46,1.76s1.27.74,1.08,1.77c0,0-.6,1.5.26,1.83a54.93,54.93,0,0,0,7.2-1s-1.34,2.73-5.82,4a.63.63,0,0,0-.18,1.12,2.89,2.89,0,0,1,.89,2.5s-.41,5.79,3.74,4.78a44,44,0,0,1,12.49-3.27S86,55.36,92.82,46.36Z"/><path class="cls-6" d="M83.43,53.58c3.55-1.94,1.07-7.18-.38-10.92.08,3.54-.28,7.28-3.42,9.45-3,2.06-6.61,2.78-10,3.74-2.67.75-5.16,2.09-7.86,2.7a6.17,6.17,0,0,1-3.16,0,2.5,2.5,0,0,0,2.82.81,44,44,0,0,1,12.49-3.27A22.59,22.59,0,0,0,83.43,53.58Z"/><path class="cls-8" d="M61.48,33.53h.15a.76.76,0,0,0,.33-.11s.11-.08.12-.14a.43.43,0,0,0,.07-.16c0-.11,0-.19,0-.19s0,.08,0,.19a.51.51,0,0,1,0,.21c0,.08-.06.14-.1.22a1.11,1.11,0,0,1-.58.37Z"/><path class="cls-8" d="M61.18,33.28l.16,0a.8.8,0,0,0,.32-.14s.1-.09.11-.15a.52.52,0,0,0,.06-.16,1.49,1.49,0,0,1,0-.19l0,.18a.74.74,0,0,1,0,.21.7.7,0,0,1-.08.23,1.21,1.21,0,0,1-.55.42Z"/><path class="cls-9" d="M64.87,32s-1.66-2.37-6.23-1.22a7.31,7.31,0,0,0-1.73.67s-.62-.09-.39-1.58C56.52,29.84,64.2,27.23,64.87,32Z"/><path class="cls-10" d="M58.58,34.47A1.37,1.37,0,1,0,60,32.88,1.51,1.51,0,0,0,58.58,34.47Z"/><path class="cls-11" d="M60.09,34.05a.56.56,0,0,0,.55.58.57.57,0,0,0,.58-.55.57.57,0,0,0-.55-.58A.56.56,0,0,0,60.09,34.05Z"/><path class="cls-11" d="M59.51,34.49a.28.28,0,0,0,.28.29.29.29,0,0,0,.29-.27.28.28,0,0,0-.28-.29A.27.27,0,0,0,59.51,34.49Z"/><path class="cls-8" d="M58.09,33.86l.12-.21a1.8,1.8,0,0,1,.41-.48,1.86,1.86,0,0,1,.82-.41,2,2,0,0,1,.54,0,2.56,2.56,0,0,1,.54.1,1.39,1.39,0,0,1,.26.1,1.08,1.08,0,0,1,.24.14,4.41,4.41,0,0,1,.39.3,3,3,0,0,0,.6.47.46.46,0,0,0,.46,0,1.08,1.08,0,0,0,.17-.13l.06,0-.15.18a.62.62,0,0,1-.23.16.69.69,0,0,1-.38,0,2.71,2.71,0,0,1-.79-.37l-.39-.2-.17-.06a.79.79,0,0,0-.2,0,1.77,1.77,0,0,0-.4,0,3.35,3.35,0,0,0-.37.09c-.24.06-.48.1-.69.17s-.4.12-.56.15l-.23.05Z"/><path class="cls-12" d="M69.24,37.74c.69,1.69-.7,3.87-3.11,4.86s-4.92.42-5.62-1.27.7-3.87,3.1-4.86S68.54,36.05,69.24,37.74Z"/><path class="cls-11" d="M55.84,48,56.61,50l.26,1.13s4.8-1.09,5.89-4.12A47.53,47.53,0,0,1,55.84,48Z"/><path class="cls-13" d="M62.94,46.93s-.19,3.55-5.85,5.54c-1.25-.86-.26-1.47-.26-1.47,4.48-1.23,5.93-4,5.93-4a11.85,11.85,0,0,1-7.2,1s-.93-.26-.38-1.46c0-.08.35-.07.41-.08a3,3,0,0,1,1.21.26c.29.12.57.27.86.37a6.15,6.15,0,0,0,1,.19,9.29,9.29,0,0,0,2.58,0,8.15,8.15,0,0,0,.86-.16A4.76,4.76,0,0,0,62.94,46.93Z"/><path class="cls-14" d="M56.61,18.3A21.74,21.74,0,0,1,64.7,18s4.74,1.47,4.6,8.57c0,0,3.56,8.25,9.14,8.1,0,0,4.31,12.33,7.63,17.76,0,0,19.67-8.74,14.86-34.31,0,0-5.44-18.51-27.07-13.68C73.86,4.48,58.57,7.75,56.61,18.3Z"/><path class="cls-5" d="M77.63,36.3c-.45,2.93.89,5.49,3,5.74s4.13-1.93,4.57-4.85-.89-5.49-3-5.73S78.07,33.38,77.63,36.3Z"/><g class="cls-15"><path class="cls-16" d="M80.19,35.43a2.54,2.54,0,0,1,.08-.43,3.55,3.55,0,0,1,.42-1,1.55,1.55,0,0,1,1.13-.88,1.8,1.8,0,0,1,.4,0l.21.07a.6.6,0,0,1,.15.09,1.58,1.58,0,0,1,.55.62,3.11,3.11,0,0,1,.3.82,2.78,2.78,0,0,1,.08.84c-.05.29,0,.59-.1.85s-.1.5-.14.73-.12.44-.16.63a4.68,4.68,0,0,1-.15.48l-.13.43s.1-.14.25-.38.18-.27.27-.45l.3-.61c.09-.23.17-.49.27-.77a7.08,7.08,0,0,0,.18-.85,2.8,2.8,0,0,0,0-1,3.81,3.81,0,0,0-.34-1,2.22,2.22,0,0,0-.78-.84,1.8,1.8,0,0,0-.31-.14l-.29-.08a2.14,2.14,0,0,0-.62,0,1.62,1.62,0,0,0-1,.53,2.19,2.19,0,0,0-.43.74A3.18,3.18,0,0,0,80.14,35,1.53,1.53,0,0,0,80.19,35.43Z"/></g><path class="cls-17" d="M80.19,35.43s-.22-.3,1.14-.4c0,0,1.53.18.74,1.64a3.9,3.9,0,0,0-.38,1c-.1.49.19,1.15-.14,1.58a1.11,1.11,0,0,1-1.77-.36c-.09-.49.55-1.34.85-1.69A1.08,1.08,0,0,0,80.19,35.43Z"/><g class="cls-15"><path class="cls-16" d="M79.78,38.8s0,0-.1.08a.9.9,0,0,0-.18.28.65.65,0,0,0-.06.21.49.49,0,0,0,0,.24,1.32,1.32,0,0,0,0,.26,1.41,1.41,0,0,0,.13.24.68.68,0,0,0,.17.21,1.12,1.12,0,0,0,.21.17,1,1,0,0,0,.43.2,1.89,1.89,0,0,0,.47.08,1.84,1.84,0,0,0-.24-.35.49.49,0,0,0-.12-.13c0-.06-.07-.12-.11-.17a1.58,1.58,0,0,0-.12-.15c-.06,0-.07-.1-.1-.16A1.73,1.73,0,0,1,80,39.5L80,39.34a.77.77,0,0,0-.07-.16C79.82,39,79.78,38.8,79.78,38.8Z"/></g><path class="cls-11" d="M82.3,42.18A1.38,1.38,0,1,1,80.76,41,1.39,1.39,0,0,1,82.3,42.18Z"/><path class="cls-18" d="M81.31,43h0a1.37,1.37,0,0,1-1.12-1.15,0,0,0,0,0,0,0,1.09,1.09,0,0,1,.1-.69,1.38,1.38,0,0,0,.84,2.58,1.38,1.38,0,0,0,1.14-.93A1.31,1.31,0,0,1,81.31,43Z"/><path class="cls-11" d="M56.91,51.83s.25-.16.62-.37c.19-.09.4-.23.64-.35l.72-.39.73-.39c.23-.14.46-.23.64-.34a5.59,5.59,0,0,1,.64-.34s-.18.23-.48.55c-.16.15-.36.31-.58.48s-.48.3-.72.45a7.54,7.54,0,0,1-1.49.58A3.74,3.74,0,0,1,56.91,51.83Z"/><path class="cls-19" d="M76.68,32.28s0,.31.07.87c.25,3.4,1,16-3.87,28.21,0,0,6.31-8.6,5.62-29.17Z"/><path class="cls-5" d="M92.13,121.76l-24.89.15c2.41-3.82,2.1-6.43,2.1-6.43-.46-14.8-2.82-16.36-2.82-16.36-5.24-4.67-7.62-9.78-2-16.72a57.14,57.14,0,0,0,8-13.27,6.4,6.4,0,0,0,.53-1.69H84.65s11.69,7.4,5.6,35.15l-1.7,12.89A10.86,10.86,0,0,0,92.13,121.76Z"/><path class="cls-11" d="M88.55,115.48l1.7-12.89a65.25,65.25,0,0,0,1.7-17,12.39,12.39,0,0,1-3,2,16.45,16.45,0,0,1-8.55,1.13,13.75,13.75,0,0,1-7.19-3c-2.33-1.88-5.09-4.5-8.19-4l-.54.68c-5.66,6.94-3.15,12.11,2.09,16.78,0,0,2.36,1.56,2.82,16.36,0,0,.31,2.61-2.1,6.43h25.1A12.14,12.14,0,0,1,88.55,115.48Z"/><path class="cls-5" d="M74.13,271.13c.15-7.26-.33-8.74-.33-8.74-3.38-38.89-7.74-63-7.74-63l-1.67-58.15H84.32l-6.73,58s7.73,33.47,2.79,63.47a50,50,0,0,0-.36,8.45Z"/><path class="cls-20" d="M79.93,277a3.22,3.22,0,0,1,.86,1.84v5.32h.63v-6.92a6.37,6.37,0,0,1,.73-2.65Z"/><path class="cls-5" d="M79.51,268.71c1.68,1.2.08,3.32.08,3.32-1.16,1-2.58,5.05-2.58,5.05a11.27,11.27,0,0,1-1.85,4.84c-1,2.16-3.63,1.1-3.63,1.1-2.88-.44-1-1.45-1-1.45,2.48-2.18,3-6.5,3-6.5a45.94,45.94,0,0,0,.57-6.36h5.34"/><path class="cls-11" d="M70.55,281.57l-1.25.62c-.82.39-1.57.88-2.36,1.32-.2.11-.42.21-.62.33s-.43.55-.29.78c.44.76,1.65.88,2.47,1,.48.06,1,.09,1.44.12a16.54,16.54,0,0,0,4.71-.17,4.37,4.37,0,0,0,1-.34c.16-.09.6-.34.65-.54,0,0,1.48-6,3.32-7.45,0,0,2.78-1.85,2.74-3.49,0,0-.14-4.09-2.85-5a2.46,2.46,0,0,1-.29,3.35s-2,1.89-2.81,6.92c0,0-1,4.33-3.23,4.23C73.18,283.21,68.72,283.05,70.55,281.57Z"/><path class="cls-11" d="M81.13,270.33a21.75,21.75,0,0,1,.64,3.46s0,1.18-2,2.55a6.09,6.09,0,0,0,1.4-2.17,11,11,0,0,1-2.4,2.84s2.38-3.19,2.38-4a4.39,4.39,0,0,1-.27,1.21S81.65,273.64,81.13,270.33Z"/><path class="cls-16" d="M79.62,276.86c-1.84,1.47-3.32,7.45-3.32,7.45,0,.19-.49.44-.65.53a3.94,3.94,0,0,1-1,.34,16.54,16.54,0,0,1-4.71.18c-.48,0-1-.07-1.44-.13-.82-.1-2-.23-2.47-1v0a.44.44,0,0,0,0,.39c.44.76,1.65.88,2.47,1,.48.06,1,.09,1.44.12a16.54,16.54,0,0,0,4.71-.17,4.37,4.37,0,0,0,1-.34c.16-.09.6-.34.65-.54,0,0,1.48-6,3.32-7.45,0,0,2.78-1.85,2.74-3.49,0,0,0-.06,0-.16C82.16,275.16,79.62,276.86,79.62,276.86Z"/><path class="cls-11" d="M69.94,282.1s-3.53,1.6-3.36,2c0,0-.36.91,3.15,1a6.18,6.18,0,0,1-2-.64,15.38,15.38,0,0,0,3.92.64s-4.29-.68-3.8-1.4A4.68,4.68,0,0,1,69.94,282.1Z"/><path class="cls-5" d="M125.92,267.67c-3.5-6.36-4.66-7.39-4.66-7.39C98.87,228.3,83,209.6,83,209.6L52.5,160.09l17.25-10,23.17,53.55s23.45,25.12,34.18,53.56a50.29,50.29,0,0,0,3.92,7.5Z"/><path class="cls-20" d="M133.88,269.87a3.18,3.18,0,0,1,1.67,1.16l2.66,4.61.54-.32-2.68-4.64-.78-1.35a6.43,6.43,0,0,1-.69-2.66Z"/><path class="cls-5" d="M129.37,262.89c2,.2,1.73,2.84,1.73,2.84-.53,1.4.3,5.66.3,5.66a11.29,11.29,0,0,1,.81,5.11c.2,2.38-2.59,2.77-2.59,2.77-2.72,1.06-1.57-.76-1.57-.76,1-3.13-.62-7.15-.62-7.15a45.26,45.26,0,0,0-2.69-5.8l4.63-2.67"/><path class="cls-11" d="M128.05,278.51l-.78,1.16c-.51.75-.92,1.55-1.39,2.32-.11.2-.25.39-.36.6s-.1.69.14.82c.76.43,1.87-.06,2.63-.38.44-.19.87-.4,1.31-.61a16.88,16.88,0,0,0,4-2.51,4.05,4.05,0,0,0,.69-.8c.1-.16.35-.59.3-.79,0,0-1.71-5.91-.86-8.1,0,0,1.48-3,.63-4.4,0,0-2.17-3.47-5-2.93a2.46,2.46,0,0,1,1.42,3.05s-.8,2.64,1,7.4c0,0,1.26,4.27-.68,5.27C131.14,278.61,127.2,280.7,128.05,278.51Z"/><path class="cls-11" d="M131.58,263.48a22.08,22.08,0,0,1,2.28,2.68s.58,1-.44,3.2a6.2,6.2,0,0,0,.13-2.59,10.9,10.9,0,0,1-.66,3.67s.47-3.95.05-4.69a4.25,4.25,0,0,1,.36,1.18S133.69,266.08,131.58,263.48Z"/><path class="cls-16" d="M133.54,269.89c-.86,2.19.85,8.11.85,8.11.06.19-.19.63-.29.79a4,4,0,0,1-.7.79,16.26,16.26,0,0,1-4,2.51c-.43.22-.86.43-1.3.61-.77.32-1.88.82-2.64.39h0a.44.44,0,0,0,.2.33c.76.43,1.87-.06,2.63-.38.44-.19.87-.4,1.31-.61a16.88,16.88,0,0,0,4-2.51,4.05,4.05,0,0,0,.69-.8c.1-.16.35-.59.3-.79,0,0-1.71-5.91-.86-8.1,0,0,1.48-3,.63-4.4l-.09-.14C134.89,267.15,133.54,269.89,133.54,269.89Z"/><path class="cls-11" d="M127.78,279.27s-2.25,3.15-1.93,3.38c0,0,.15,1,3.23-.71a6.19,6.19,0,0,1-2.09.47A15.16,15.16,0,0,0,130.7,281s-4,1.56-4,.69A4.65,4.65,0,0,1,127.78,279.27Z"/><path class="cls-3" d="M67.2,121.76s-48,27.32-46.29,149.7c0,0,53.5,18.86,123.72-1.43,0,0-2.92-110.14-52.5-148.27Z"/><path class="cls-3" d="M67.2,121.76S13.63,146.9,15.49,259.53c0,0,58.19,17.37,134.55-1.31,0,0-4-101.37-57.91-136.46Z"/><path class="cls-11" d="M67.2,121.76S29.09,148.08,30.54,266c0,0,45.19,18.17,104.49-1.38,0,0-1-106.13-42.9-142.87Z"/><path class="cls-11" d="M74,68.43a1.15,1.15,0,1,1-1.06-1.23A1.15,1.15,0,0,1,74,68.43Z"/><path class="cls-11" d="M75.43,68.78a1.15,1.15,0,0,1-2.29-.18,1.15,1.15,0,1,1,2.29.18Z"/><path class="cls-11" d="M77.5,68.78a1.15,1.15,0,1,1-1.06-1.24A1.15,1.15,0,0,1,77.5,68.78Z"/><path class="cls-11" d="M79.68,68.43a1.15,1.15,0,1,1-1.05-1.23A1.15,1.15,0,0,1,79.68,68.43Z"/><path class="cls-11" d="M81.87,68.14a1.15,1.15,0,1,1-1.06-1.24A1.15,1.15,0,0,1,81.87,68.14Z"/><path class="cls-11" d="M83.87,67.06a1.15,1.15,0,1,1-1.05-1.24A1.16,1.16,0,0,1,83.87,67.06Z"/><path class="cls-11" d="M85.34,65.91a1.14,1.14,0,0,1-1.23,1,1.14,1.14,0,1,1,1.23-1Z"/><path class="cls-3" d="M113.67,210.64a551.46,551.46,0,0,0,1-58.78c-.6-18.17-1.73-36.33-4-54.3-2.17-17.33-5.14-34.61-9.8-51.17-3.65-13-8.33-25.69-14.82-36.8l10.8,0s48.63,92.27,53.63,220.57a187.08,187.08,0,0,1-40.24,10.6C111.8,230.77,112.91,220.72,113.67,210.64Z"/><path class="cls-11" d="M95.93,9a3.58,3.58,0,0,0-.81,2.61A3.55,3.55,0,0,0,97.79,11a3.53,3.53,0,0,0,.81-2.61A3.55,3.55,0,0,0,95.93,9Z"/><path class="cls-21" d="M98.6,8.38A3.53,3.53,0,0,1,97.79,11a3.56,3.56,0,0,1-2.65.58,3.09,3.09,0,0,0,2.29-.5,3.1,3.1,0,0,0,.7-2.26,3,3,0,0,0-2.31.5,3.08,3.08,0,0,0-.7,2.25A3.58,3.58,0,0,1,95.93,9,3.55,3.55,0,0,1,98.6,8.38Z"/><path class="cls-11" d="M94.06,14.41a3.6,3.6,0,0,0,.81-2.62,3.61,3.61,0,0,0-2.68.58,3.55,3.55,0,0,0-.8,2.61A3.55,3.55,0,0,0,94.06,14.41Z"/><path class="cls-21" d="M91.39,15a3.55,3.55,0,0,1,.8-2.61,3.54,3.54,0,0,1,2.66-.58,3.09,3.09,0,0,0-2.29.5,3.1,3.1,0,0,0-.7,2.26,3.1,3.1,0,0,0,2.31-.5,3.1,3.1,0,0,0,.7-2.26,3.6,3.6,0,0,1-.81,2.62A3.55,3.55,0,0,1,91.39,15Z"/><path class="cls-11" d="M93,9.56c.32,1.26,1.91,1.95,1.91,1.95a3.55,3.55,0,0,0,.77-2.62c-.31-1.27-1.91-2-1.91-2A3.56,3.56,0,0,0,93,9.56Z"/><path class="cls-21" d="M93.81,6.93s1.6.69,1.91,2A3.51,3.51,0,0,1,95,11.5a3,3,0,0,0,.66-2.25C95.35,8.15,94,7.56,94,7.56a3.08,3.08,0,0,0-.67,2.26c.27,1.1,1.65,1.69,1.65,1.69S93.36,10.82,93,9.56A3.56,3.56,0,0,1,93.81,6.93Z"/><path class="cls-11" d="M97,13.8c-.32-1.26-1.91-2-1.91-2a3.58,3.58,0,0,0-.77,2.63c.31,1.26,1.91,2,1.91,2A3.55,3.55,0,0,0,97,13.8Z"/><path class="cls-21" d="M96.18,16.42s-1.6-.69-1.91-2A3.48,3.48,0,0,1,95,11.86a3,3,0,0,0-.66,2.25A3.08,3.08,0,0,0,96,15.8a3.09,3.09,0,0,0,.67-2.27C96.42,12.44,95,11.84,95,11.84s1.59.7,1.91,2A3.55,3.55,0,0,1,96.18,16.42Z"/><path class="cls-11" d="M92.17,12.26a3.57,3.57,0,0,0,2.66-.63S94.22,10,93,9.62a3.53,3.53,0,0,0-2.66.63A3.55,3.55,0,0,0,92.17,12.26Z"/><path class="cls-21" d="M90.32,10.25A3.53,3.53,0,0,1,93,9.62a3.55,3.55,0,0,1,1.85,2,3.11,3.11,0,0,0-1.6-1.72,3.08,3.08,0,0,0-2.3.55s.53,1.41,1.6,1.73a3.09,3.09,0,0,0,2.3-.54,3.57,3.57,0,0,1-2.66.63A3.55,3.55,0,0,1,90.32,10.25Z"/><path class="cls-11" d="M97.82,11.1a3.57,3.57,0,0,0-2.66.63,3.55,3.55,0,0,0,1.85,2,3.57,3.57,0,0,0,2.66-.63A3.55,3.55,0,0,0,97.82,11.1Z"/><path class="cls-21" d="M99.67,13.11a3.57,3.57,0,0,1-2.66.63,3.56,3.56,0,0,1-1.85-2,3.09,3.09,0,0,0,1.6,1.73,3.08,3.08,0,0,0,2.3-.55,3.08,3.08,0,0,0-1.6-1.74,3.08,3.08,0,0,0-2.3.55,3.57,3.57,0,0,1,2.66-.63A3.55,3.55,0,0,1,99.67,13.11Z"/><path class="cls-22" d="M94.28,10.9a1.06,1.06,0,1,0,1.5.06A1.07,1.07,0,0,0,94.28,10.9Z"/><path class="cls-23" d="M94.53,11.17a.69.69,0,0,0,0,1,.68.68,0,0,0,1-.92A.69.69,0,0,0,94.53,11.17Z"/><path class="cls-24" d="M94.76,11.43a.34.34,0,1,0,.47.5.34.34,0,0,0,0-.48A.35.35,0,0,0,94.76,11.43Z"/><path class="cls-11" d="M99.39,14.63a3.58,3.58,0,0,0-.81,2.61,3.55,3.55,0,0,0,2.67-.57,3.55,3.55,0,0,0,.81-2.62A3.58,3.58,0,0,0,99.39,14.63Z"/><path class="cls-21" d="M102.06,14.05a3.55,3.55,0,0,1-.81,2.62,3.56,3.56,0,0,1-2.65.58,3.09,3.09,0,0,0,2.29-.5,3.1,3.1,0,0,0,.7-2.26,3.07,3.07,0,0,0-2.31.49,3.11,3.11,0,0,0-.7,2.26,3.58,3.58,0,0,1,.81-2.61A3.58,3.58,0,0,1,102.06,14.05Z"/><path class="cls-11" d="M97.52,20.09a3.6,3.6,0,0,0,.81-2.62,3.61,3.61,0,0,0-2.68.58,3.55,3.55,0,0,0-.8,2.61A3.55,3.55,0,0,0,97.52,20.09Z"/><path class="cls-21" d="M94.85,20.66a3.55,3.55,0,0,1,.8-2.61,3.54,3.54,0,0,1,2.66-.58A3,3,0,0,0,96,18a3.1,3.1,0,0,0-.7,2.26,3.1,3.1,0,0,0,2.31-.5,3.1,3.1,0,0,0,.7-2.26,3.6,3.6,0,0,1-.81,2.62A3.55,3.55,0,0,1,94.85,20.66Z"/><path class="cls-11" d="M96.5,15.24c.32,1.26,1.91,2,1.91,2a3.55,3.55,0,0,0,.77-2.62c-.31-1.27-1.91-2-1.91-2A3.61,3.61,0,0,0,96.5,15.24Z"/><path class="cls-21" d="M97.27,12.61s1.6.69,1.91,2a3.51,3.51,0,0,1-.76,2.61,3,3,0,0,0,.66-2.26c-.28-1.09-1.65-1.68-1.65-1.68a3.08,3.08,0,0,0-.67,2.26c.27,1.1,1.65,1.69,1.65,1.69s-1.59-.69-1.91-2A3.61,3.61,0,0,1,97.27,12.61Z"/><path class="cls-11" d="M100.41,19.48c-.32-1.27-1.91-2-1.91-2a3.56,3.56,0,0,0-.77,2.63c.31,1.26,1.91,2,1.91,2A3.59,3.59,0,0,0,100.41,19.48Z"/><path class="cls-21" d="M99.64,22.1s-1.6-.69-1.91-2a3.53,3.53,0,0,1,.75-2.61,3.07,3.07,0,0,0-.65,2.25c.27,1.09,1.65,1.69,1.65,1.69a3.09,3.09,0,0,0,.67-2.27c-.27-1.09-1.65-1.69-1.65-1.69s1.59.69,1.91,2A3.59,3.59,0,0,1,99.64,22.1Z"/><path class="cls-11" d="M95.63,17.94a3.57,3.57,0,0,0,2.66-.63,3.55,3.55,0,0,0-1.85-2,3.57,3.57,0,0,0-2.66.63A3.55,3.55,0,0,0,95.63,17.94Z"/><path class="cls-21" d="M93.78,15.93a3.57,3.57,0,0,1,2.66-.63,3.55,3.55,0,0,1,1.85,2,3.11,3.11,0,0,0-1.6-1.72,3.09,3.09,0,0,0-2.3.55A3.11,3.11,0,0,0,96,17.85a3.09,3.09,0,0,0,2.3-.54,3.57,3.57,0,0,1-2.66.63A3.55,3.55,0,0,1,93.78,15.93Z"/><path class="cls-11" d="M101.28,16.78a3.57,3.57,0,0,0-2.66.63,3.55,3.55,0,0,0,1.85,2,3.57,3.57,0,0,0,2.66-.63A3.55,3.55,0,0,0,101.28,16.78Z"/><path class="cls-21" d="M103.13,18.79a3.57,3.57,0,0,1-2.66.63,3.5,3.5,0,0,1-1.84-2,3,3,0,0,0,1.59,1.73,3.08,3.08,0,0,0,2.3-.55s-.53-1.41-1.6-1.74a3.08,3.08,0,0,0-2.3.55,3.57,3.57,0,0,1,2.66-.63A3.55,3.55,0,0,1,103.13,18.79Z"/><path class="cls-22" d="M97.74,16.58a1.06,1.06,0,1,0,1.5.06A1.06,1.06,0,0,0,97.74,16.58Z"/><path class="cls-23" d="M98,16.85a.69.69,0,1,0,1,0A.69.69,0,0,0,98,16.85Z"/><path class="cls-24" d="M98.22,17.11a.34.34,0,1,0,.47.5.35.35,0,0,0,0-.48A.35.35,0,0,0,98.22,17.11Z"/><path class="cls-11" d="M90.83,4.78A3.53,3.53,0,0,0,90,7.39a3.53,3.53,0,0,0,2.67-.58A3.58,3.58,0,0,0,93.5,4.2,3.53,3.53,0,0,0,90.83,4.78Z"/><path class="cls-21" d="M93.5,4.2a3.58,3.58,0,0,1-.81,2.61A3.47,3.47,0,0,1,90,7.39a3,3,0,0,0,2.29-.5A3.1,3.1,0,0,0,93,4.63a3.1,3.1,0,0,0-2.31.5A3.05,3.05,0,0,0,90,7.39a3.53,3.53,0,0,1,.81-2.61A3.53,3.53,0,0,1,93.5,4.2Z"/><path class="cls-11" d="M89,10.23a3.58,3.58,0,0,0,.81-2.61,3.58,3.58,0,0,0-2.68.57,3.58,3.58,0,0,0-.8,2.62A3.58,3.58,0,0,0,89,10.23Z"/><path class="cls-21" d="M86.29,10.81a3.58,3.58,0,0,1,.8-2.62,3.52,3.52,0,0,1,2.66-.57,3,3,0,0,0-2.29.5,3.08,3.08,0,0,0-.7,2.25,3.07,3.07,0,0,0,2.31-.49,3.1,3.1,0,0,0,.7-2.26A3.58,3.58,0,0,1,89,10.23,3.58,3.58,0,0,1,86.29,10.81Z"/><path class="cls-11" d="M87.94,5.38c.31,1.27,1.91,2,1.91,2a3.56,3.56,0,0,0,.77-2.63c-.32-1.26-1.91-1.95-1.91-1.95A3.55,3.55,0,0,0,87.94,5.38Z"/><path class="cls-21" d="M88.71,2.76s1.59.69,1.91,2a3.52,3.52,0,0,1-.76,2.62,3.1,3.1,0,0,0,.66-2.26C90.24,4,88.86,3.38,88.86,3.38a3.12,3.12,0,0,0-.66,2.27c.27,1.09,1.65,1.69,1.65,1.69s-1.6-.69-1.91-2A3.55,3.55,0,0,1,88.71,2.76Z"/><path class="cls-11" d="M91.85,9.62c-.32-1.26-1.91-1.95-1.91-1.95a3.58,3.58,0,0,0-.78,2.62c.32,1.27,1.92,2,1.92,2A3.61,3.61,0,0,0,91.85,9.62Z"/><path class="cls-21" d="M91.08,12.25s-1.6-.69-1.92-2a3.6,3.6,0,0,1,.76-2.61,3.06,3.06,0,0,0-.65,2.26c.27,1.09,1.65,1.69,1.65,1.69a3.11,3.11,0,0,0,.67-2.27,3.12,3.12,0,0,0-1.65-1.69s1.59.69,1.91,1.95A3.61,3.61,0,0,1,91.08,12.25Z"/><path class="cls-11" d="M87.07,8.09a3.58,3.58,0,0,0,2.66-.64s-.61-1.63-1.85-2a3.57,3.57,0,0,0-2.66.63S85.82,7.71,87.07,8.09Z"/><path class="cls-21" d="M85.22,6.07a3.57,3.57,0,0,1,2.66-.63,3.53,3.53,0,0,1,1.84,2,3,3,0,0,0-1.59-1.72,3.09,3.09,0,0,0-2.3.54A3.08,3.08,0,0,0,87.43,8a3.08,3.08,0,0,0,2.3-.55,3.58,3.58,0,0,1-2.66.64C85.82,7.71,85.22,6.07,85.22,6.07Z"/><path class="cls-11" d="M92.72,6.92a3.57,3.57,0,0,0-2.66.63s.6,1.64,1.85,2a3.59,3.59,0,0,0,2.66-.63S94,7.3,92.72,6.92Z"/><path class="cls-21" d="M94.57,8.94a3.59,3.59,0,0,1-2.66.63,3.56,3.56,0,0,1-1.85-2,3.08,3.08,0,0,0,1.6,1.72A3.11,3.11,0,0,0,94,8.75S93.43,7.34,92.36,7a3.09,3.09,0,0,0-2.3.54,3.57,3.57,0,0,1,2.66-.63C94,7.3,94.57,8.94,94.57,8.94Z"/><path class="cls-22" d="M89.18,6.72a1.05,1.05,0,0,0-.07,1.5,1.06,1.06,0,1,0,.07-1.5Z"/><path class="cls-23" d="M89.43,7a.68.68,0,0,0,0,1,.69.69,0,0,0,1,0,.7.7,0,0,0,0-1A.69.69,0,0,0,89.43,7Z"/><path class="cls-24" d="M89.66,7.25a.34.34,0,1,0,.48,0A.34.34,0,0,0,89.66,7.25Z"/><path class="cls-11" d="M85.42,2a3.55,3.55,0,0,0-.8,2.61,3.55,3.55,0,0,0,2.67-.57,3.6,3.6,0,0,0,.81-2.62A3.6,3.6,0,0,0,85.42,2Z"/><path class="cls-21" d="M88.1,1.44a3.6,3.6,0,0,1-.81,2.62,3.52,3.52,0,0,1-2.66.57,3,3,0,0,0,2.3-.5,3.08,3.08,0,0,0,.7-2.25,3.1,3.1,0,0,0-2.32.49,3.08,3.08,0,0,0-.69,2.26A3.55,3.55,0,0,1,85.42,2,3.6,3.6,0,0,1,88.1,1.44Z"/><path class="cls-11" d="M83.56,7.48a3.61,3.61,0,0,0,.81-2.62,3.6,3.6,0,0,0-2.68.58,3.58,3.58,0,0,0-.81,2.61A3.58,3.58,0,0,0,83.56,7.48Z"/><path class="cls-21" d="M80.88,8.05a3.58,3.58,0,0,1,.81-2.61,3.49,3.49,0,0,1,2.66-.58,3,3,0,0,0-2.3.5,3.08,3.08,0,0,0-.69,2.26,3.1,3.1,0,0,0,2.31-.5,3.1,3.1,0,0,0,.7-2.26,3.61,3.61,0,0,1-.81,2.62A3.58,3.58,0,0,1,80.88,8.05Z"/><path class="cls-11" d="M82.54,2.63c.31,1.26,1.91,2,1.91,2A3.55,3.55,0,0,0,85.22,2C84.9.69,83.31,0,83.31,0A3.56,3.56,0,0,0,82.54,2.63Z"/><path class="cls-21" d="M83.31,0s1.59.69,1.91,2a3.56,3.56,0,0,1-.76,2.61,3.1,3.1,0,0,0,.66-2.26C84.84,1.22,83.46.62,83.46.62a3.07,3.07,0,0,0-.66,2.27c.27,1.09,1.65,1.69,1.65,1.69s-1.6-.69-1.91-1.95A3.56,3.56,0,0,1,83.31,0Z"/><path class="cls-11" d="M86.45,6.87c-.32-1.27-1.92-2-1.92-2a3.61,3.61,0,0,0-.77,2.63c.32,1.26,1.92,2,1.92,2A3.59,3.59,0,0,0,86.45,6.87Z"/><path class="cls-21" d="M85.68,9.49s-1.6-.69-1.92-1.95a3.52,3.52,0,0,1,.76-2.61,3,3,0,0,0-.65,2.25c.27,1.09,1.65,1.69,1.65,1.69a3.11,3.11,0,0,0,.67-2.27c-.28-1.09-1.66-1.69-1.66-1.69s1.6.69,1.92,2A3.59,3.59,0,0,1,85.68,9.49Z"/><path class="cls-11" d="M81.67,5.33a3.59,3.59,0,0,0,2.66-.63s-.61-1.64-1.85-2a3.6,3.6,0,0,0-2.67.63S80.42,5,81.67,5.33Z"/><path class="cls-21" d="M79.81,3.31a3.6,3.6,0,0,1,2.67-.63,3.53,3.53,0,0,1,1.84,2A3,3,0,0,0,82.73,3a3.09,3.09,0,0,0-2.3.54A3.08,3.08,0,0,0,82,5.24a3.09,3.09,0,0,0,2.3-.54,3.59,3.59,0,0,1-2.66.63C80.42,5,79.81,3.31,79.81,3.31Z"/><path class="cls-11" d="M87.32,4.16a3.56,3.56,0,0,0-2.66.64,3.55,3.55,0,0,0,1.85,2,3.59,3.59,0,0,0,2.66-.63A3.62,3.62,0,0,0,87.32,4.16Z"/><path class="cls-21" d="M89.17,6.18a3.59,3.59,0,0,1-2.66.63,3.52,3.52,0,0,1-1.85-2,3,3,0,0,0,1.59,1.72A3.09,3.09,0,0,0,88.55,6,3.08,3.08,0,0,0,87,4.25a3.06,3.06,0,0,0-2.29.55,3.56,3.56,0,0,1,2.66-.64A3.62,3.62,0,0,1,89.17,6.18Z"/><path class="cls-22" d="M83.77,4a1.07,1.07,0,1,0,1.5.07A1.06,1.06,0,0,0,83.77,4Z"/><path class="cls-23" d="M84,4.24a.69.69,0,1,0,.93,1,.69.69,0,0,0-.93-1Z"/><path class="cls-24" d="M84.26,4.49a.35.35,0,0,0,0,.49.34.34,0,0,0,.48,0,.35.35,0,0,0,0-.49A.35.35,0,0,0,84.26,4.49Z"/><path class="cls-11" d="M101.5,20.4a3.55,3.55,0,0,0-.8,2.61,3.55,3.55,0,0,0,2.67-.57,3.6,3.6,0,0,0,.81-2.62A3.6,3.6,0,0,0,101.5,20.4Z"/><path class="cls-21" d="M104.18,19.82a3.6,3.6,0,0,1-.81,2.62,3.52,3.52,0,0,1-2.66.57,3,3,0,0,0,2.3-.5,3.08,3.08,0,0,0,.7-2.25,3.1,3.1,0,0,0-2.32.49A3.08,3.08,0,0,0,100.7,23a3.55,3.55,0,0,1,.8-2.61A3.6,3.6,0,0,1,104.18,19.82Z"/><path class="cls-11" d="M99.64,25.86a3.6,3.6,0,0,0,.81-2.62,3.6,3.6,0,0,0-2.68.58A3.58,3.58,0,0,0,97,26.43,3.58,3.58,0,0,0,99.64,25.86Z"/><path class="cls-21" d="M97,26.43a3.58,3.58,0,0,1,.81-2.61,3.49,3.49,0,0,1,2.66-.58,3,3,0,0,0-2.3.5A3.08,3.08,0,0,0,97.44,26a3.1,3.1,0,0,0,2.31-.5,3.1,3.1,0,0,0,.7-2.26,3.6,3.6,0,0,1-.81,2.62A3.58,3.58,0,0,1,97,26.43Z"/><path class="cls-11" d="M98.62,21c.31,1.27,1.91,2,1.91,2a3.55,3.55,0,0,0,.77-2.62c-.32-1.27-1.91-2-1.91-2A3.55,3.55,0,0,0,98.62,21Z"/><path class="cls-21" d="M99.39,18.38s1.59.69,1.91,2a3.56,3.56,0,0,1-.76,2.61,3.1,3.1,0,0,0,.66-2.26C100.92,19.6,99.54,19,99.54,19a3.07,3.07,0,0,0-.66,2.27c.27,1.09,1.65,1.69,1.65,1.69s-1.6-.69-1.91-2A3.55,3.55,0,0,1,99.39,18.38Z"/><path class="cls-11" d="M102.52,25.25c-.31-1.27-1.91-2-1.91-2a3.61,3.61,0,0,0-.77,2.63c.32,1.26,1.92,1.95,1.92,1.95A3.56,3.56,0,0,0,102.52,25.25Z"/><path class="cls-21" d="M101.76,27.87s-1.6-.69-1.92-1.95a3.52,3.52,0,0,1,.76-2.61,3,3,0,0,0-.65,2.25c.27,1.09,1.65,1.69,1.65,1.69a3.11,3.11,0,0,0,.67-2.27c-.28-1.09-1.66-1.69-1.66-1.69s1.6.69,1.91,2A3.56,3.56,0,0,1,101.76,27.87Z"/><path class="cls-11" d="M97.75,23.71a3.59,3.59,0,0,0,2.66-.63s-.61-1.64-1.86-2a3.59,3.59,0,0,0-2.66.63S96.5,23.33,97.75,23.71Z"/><path class="cls-21" d="M95.89,21.69a3.59,3.59,0,0,1,2.66-.63,3.52,3.52,0,0,1,1.85,2,3,3,0,0,0-1.59-1.72,3.09,3.09,0,0,0-2.3.54,3.08,3.08,0,0,0,1.6,1.74,3.11,3.11,0,0,0,2.3-.54,3.59,3.59,0,0,1-2.66.63C96.5,23.33,95.89,21.69,95.89,21.69Z"/><path class="cls-11" d="M103.4,22.54a3.59,3.59,0,0,0-2.67.64,3.58,3.58,0,0,0,1.86,2,3.59,3.59,0,0,0,2.66-.63A3.62,3.62,0,0,0,103.4,22.54Z"/><path class="cls-21" d="M105.25,24.56a3.59,3.59,0,0,1-2.66.63,3.52,3.52,0,0,1-1.85-2,3,3,0,0,0,1.6,1.72,3.07,3.07,0,0,0,2.29-.54,3.08,3.08,0,0,0-1.6-1.74,3.09,3.09,0,0,0-2.3.55,3.59,3.59,0,0,1,2.67-.64A3.62,3.62,0,0,1,105.25,24.56Z"/><path class="cls-22" d="M99.85,22.34a1.07,1.07,0,1,0,1.5.07A1.06,1.06,0,0,0,99.85,22.34Z"/><path class="cls-23" d="M100.11,22.62a.68.68,0,0,0,0,1,.67.67,0,0,0,1,0,.68.68,0,1,0-.92-1Z"/><path class="cls-24" d="M100.34,22.87a.35.35,0,0,0,0,.49.34.34,0,0,0,.48,0,.35.35,0,0,0,0-.49A.35.35,0,0,0,100.34,22.87Z"/><path class="cls-5" d="M23.36,133.8l3-3.6,33.06-18.14L81.1,91.62s7.93-5,5.43-10.28c-3.9-8.46-13.41-.73-13.41-.73L51.61,104.9,20.39,126.64a15.63,15.63,0,0,0-5-.46s-2.32-.08-1.09,1.82l2.38.19s-1.69,1.75.9,4.1C17.62,132.29,21.32,135.75,23.36,133.8Z"/></g></g></g></svg>