<svg xmlns="http://www.w3.org/2000/svg" viewBox="0 0 152.76 302.91"><defs><style>.cls-1{isolation:isolate;}.cls-11,.cls-2{fill:#e6e7e8;}.cls-14,.cls-17,.cls-2,.cls-6,.cls-8{mix-blend-mode:multiply;}.cls-3{fill:#fbb88e;}.cls-4{fill:#fff;}.cls-5{fill:#141c26;}.cls-15,.cls-6{fill:#bcbec0;}.cls-7{fill:#00000d;}.cls-8{fill:#d1d3d4;}.cls-9{fill:#2c3c45;}.cls-10{fill:#b6e4fa;}.cls-12{fill:#291200;}.cls-13{fill:#cf9977;}.cls-16{fill:#d59f7e;}.cls-17{fill:#a7a9ac;}.cls-18{fill:#000512;}</style></defs><g class="cls-1"><g id="Layer_2" data-name="Layer 2"><g id="Capa_1" data-name="Capa 1"><path class="cls-2" d="M101.93,295.09c0,4.32-22.82,7.82-51,7.82s-51-3.5-51-7.82,22.82-7.82,51-7.82S101.93,290.77,101.93,295.09Z"/><path class="cls-3" d="M146.27,139a38.3,38.3,0,0,0,3.85,3.69.41.41,0,0,1-.09.62s-.29.2-.78-.11c0,0-1.81-1.23-4-3l2,2.42a.43.43,0,0,1-.12.54.49.49,0,0,1-.68,0L144,141s-3.63-1.92-3.65-3.78c1.26-4.86,6.56-4,6.56-4,.73,0,1.47-.07,2.2-.11l.58,0c.86-.07,1,.54,1,.54a.8.8,0,0,1-.62.88l-3.74.74,5.82,4.41s1,.72.54,1.28c0,0-.19.42-1.24-.28l-4.82-3.09s4,3.33,5.33,4.25a.54.54,0,0,1-.27.9s-.45.16-1.31-.59c0,0-3.62-2.62-4.06-3.08"/><path class="cls-3" d="M119.64,122.38l24.56,11.71-2.41,3.65-27.7-9.54a3.81,3.81,0,0,1,0-5.82S116.27,120,119.64,122.38Z"/><polygon class="cls-4" points="139.5 138.26 135.3 135.97 139.29 129.72 143.27 132.5 139.5 138.26"/><path class="cls-5" d="M82,86.87,105.4,114.4l36.4,16.19-4.18,7.12-36.18-12.26L74,97.79s-5.94-4.39-2.32-9.2C71.71,88.59,74.68,83.25,82,86.87Z"/><rect class="cls-3" x="47.76" y="72.51" width="9.52" height="9.02"/><path class="cls-6" d="M57.28,75.18V72.51H47.76V78A11.62,11.62,0,0,0,57.28,75.18Z"/><path class="cls-3" d="M82.27,89a6,6,0,0,0-4.38-4.11L57.25,80.78H47.79L27.14,84.9A6,6,0,0,0,22.77,89l-.87,8.24H83.13Z"/><polygon class="cls-3" points="52.52 96.3 29.96 96.3 33.48 148.97 52.52 148.97 71.55 148.97 75.07 96.3 52.52 96.3"/><path class="cls-4" d="M83.13,97.25,82.27,89a6,6,0,0,0-4.38-4.11L57.25,80.78l-5.35-1-4.11,1L27.14,84.9A6,6,0,0,0,22.77,89l-.87,8.24H30L33.48,149H71.55L75,97.25Z"/><path d="M41.06,293.28l2.44-1v-1.33L31.72,295.4c-4.42,1.77-7.23-.48-7.23-.48s-.45-.75-.47-.76c-.42.32-.23,1.53.5,2.12,0,0,2.78,2.1,7.21.34l6.59-2.76,2.74-1.11Z"/><path class="cls-7" d="M43.6,288l-2.59.67c-.65,0,.05-1,.05-1,.32-.65-1.62-.82-1.62-.82-.88-.07-1.16.36-1.16.36-1.3,1.82-7.84,4.31-7.84,4.31l-5,1.48s-2.44.71-1,1.89c0,0,2.81,2.25,7.23.48l9.41-3.58,2.37-.9Z"/><path d="M65.82,293.28l-2.44-1v-1.33l11.78,4.48c4.43,1.77,7.23-.48,7.23-.48s.45-.75.47-.76c.42.32.23,1.53-.49,2.12,0,0-2.79,2.1-7.21.34l-6.6-2.76-2.73-1.11Z"/><path class="cls-7" d="M63.28,288l2.59.67c.66,0-.05-1-.05-1-.32-.65,1.62-.82,1.62-.82.88-.07,1.16.36,1.16.36,1.3,1.82,7.84,4.31,7.84,4.31l5,1.48s2.44.71,1,1.89c0,0-2.8,2.25-7.23.48l-9.4-3.58-2.38-.9Z"/><path class="cls-5" d="M42,150.94h0l-9.68-2-.29,1.6c-.09.54-.21,1.21-.34,2s-.27,1.63-.43,2.6c-.3,2-.65,4.29-1,7s-.76,5.73-1.11,9S28.39,178,28,181.82c-.19,1.9-.29,3.86-.45,5.85s-.33,4-.42,6.1c-.2,4.15-.49,8.43-.57,12.79-.06,2.18-.12,4.38-.18,6.58s0,4.42,0,6.64,0,4.42,0,6.63.11,4.4.16,6.58c.06,4.36.35,8.65.57,12.79s.58,8.16.91,12q.25,2.85.49,5.53c.22,1.78.44,3.5.64,5.15.43,3.3.77,6.33,1.16,9s.82,5,1.14,6.92l1,6L46.72,288s-.27-2.11-.73-5.79c-.23-1.84-.52-4.08-.84-6.65s-.49-5.48-.77-8.66c-.14-1.58-.28-3.24-.43-4.95s-.18-3.49-.27-5.31c-.17-3.65-.42-7.49-.43-11.48s-.19-8.11-.08-12.3q0-3.13.08-6.32c0-2.12.16-4.24.24-6.37l.27-6.37c.14-2.11.28-4.22.42-6.31.23-4.18.67-8.28,1-12.26.17-2,.43-3.93.63-5.83s.39-3.78.65-5.59c.48-3.62.9-7,1.41-10.18s.95-6,1.38-8.56.86-4.73,1.2-6.53l.48-2.39c.15-.66.27-1.23.37-1.69l.32-1.46Z"/><path class="cls-5" d="M32.54,149.09,71.85,149s3.05,18.49-20.62,18.39C51.23,167.36,32.54,169.26,32.54,149.09Z"/><path class="cls-8" d="M51.92,164.37c-4.75-1.51-9-3.68-11.32-7.84a9.42,9.42,0,0,1-.86-7.46l-7.2,0c0,20.17,18.69,18.27,18.69,18.27,7.07,0,11.75-1.6,14.85-3.9A20.2,20.2,0,0,1,51.92,164.37Z"/><path class="cls-5" d="M77.4,220.43c0-4.36-.2-8.71-.31-13s-.38-8.49-.57-12.57-.47-8-.79-11.74c-.15-1.86-.29-3.68-.43-5.43s-.31-3.45-.46-5.08c-.28-3.25-.63-6.23-.89-8.88s-.56-5-.81-6.85c-.12-1-.23-1.81-.32-2.55s-.19-1.4-.26-1.93c-.15-1-.22-1.56-.22-1.56l-17.82,2.84s.08.52.25,1.48c.07.48.17,1.06.28,1.74s.23,1.52.37,2.42c.28,1.81.59,4,.95,6.57s.73,5.43,1.08,8.58c.19,1.57.38,3.21.58,4.91s.36,3.46.55,5.27c.41,3.61.69,7.44,1.07,11.39s.63,8,.87,12.2.52,8.38.63,12.6q.12,3.18.23,6.33c.08,2.11.07,4.2.12,6.28s0,4.14.08,6.18,0,4.05,0,6,0,3.92-.06,5.82-.14,3.76-.2,5.57c-.15,3.62-.23,7.05-.49,10.19s-.41,6-.59,8.59-.49,4.77-.68,6.59c-.37,3.66-.59,5.75-.59,5.75l14.33,1.95s.28-2.17.78-6c.24-1.9.54-4.21.88-6.86s.54-5.65.85-8.92.54-6.81.78-10.55q.18-2.82.36-5.77t.22-6q.1-3.06.22-6.23c0-2.1,0-4.23.08-6.37s.07-4.31,0-6.48S77.42,222.6,77.4,220.43Z"/><path class="cls-5" d="M84,98.1,82.74,89a6.34,6.34,0,0,0-4.85-4.11L61.2,81.57v76.64l13.87,0L75,99.46Z"/><path class="cls-5" d="M43.38,158.19V81.66L27.14,84.9A6,6,0,0,0,22.77,89l-.87,8.24H30L30,158.19Z"/><path class="cls-5" d="M63.43,151.82a10.66,10.66,0,0,0,7.92,8.36v13.41H57.71S53.64,155.79,63.43,151.82Z"/><path class="cls-9" d="M43.38,81.53v51.11a119,119,0,0,1-8-32.13L40,98.36,34,93S34.23,82.28,43.38,81.53Z"/><polygon class="cls-4" points="51.9 79.77 47.77 79.77 39.98 82.34 47.77 87.53 51.9 79.77"/><polygon class="cls-10" points="39.98 82.34 47.77 87.53 51.9 79.77 47.83 85.33 39.98 82.34"/><rect class="cls-11" x="50.97" y="86.72" width="2.81" height="62.26"/><path class="cls-3" d="M52.12,15.6h.13c4.57.25,26.35-1,19.74,33.81L70.83,62.28A10.93,10.93,0,0,1,66.77,69a59.65,59.65,0,0,1-7.66,6.36c-1.5,1.07-3.84.71-5.43,0-5.17-2.3-15.53-7.51-15.53-7.51-3.58-2.72-3.75-5.6-3.75-5.6l-2-12.86C27.62,18.71,47.55,15.86,52.12,15.6Z"/><path class="cls-12" d="M32.38,49.42l2,12.86s.17,2.88,3.75,5.6c0,0,10.36,5.21,15.53,7.51,1.59.71,3.93,1.07,5.43,0A59.65,59.65,0,0,0,66.77,69a10.93,10.93,0,0,0,4.06-6.75l1.49-14.57a2.94,2.94,0,0,1-.42,0,45.83,45.83,0,0,1-1.62,8.92c-.35.95-1.62,3.6-3,2.94-.93-.44-1.47-1.25-2.49-1.65-1.79-.68-3.71,0-5.52.14-3.35.2-7-1.43-10.12.55-2.43,1.57-4.59,4.1-7.75,2.32s-3.88-8.51-4.09-11.6Z"/><path class="cls-13" d="M59,39.62s0,.35.09,1,.16,1.48.31,2.52.34,2.24.64,3.51a22.47,22.47,0,0,0,1.2,3.85,11.61,11.61,0,0,0,.95,1.78,3,3,0,0,1,.42,1.1,2.22,2.22,0,0,1-.09,1.17A2.57,2.57,0,0,1,61,56a6.53,6.53,0,0,1-1.72.4,12,12,0,0,1-2.57,0c-.62,0-1-.11-1-.11l1-.06c.3,0,.67,0,1.09-.1s.9-.11,1.4-.22a5.77,5.77,0,0,0,1.54-.5,2,2,0,0,0,1.11-1.1,2,2,0,0,0-.28-1.6,10.91,10.91,0,0,1-1-1.91A25.25,25.25,0,0,1,59,43.14,30,30,0,0,1,59,39.62Z"/><path class="cls-12" d="M37.35,49.66H35s.25-8.23-5.11-6.36c0,0-2.41-12.77-.75-22.06C31.34,8.87,44.33,7.9,44.33,7.9,49.4-2.43,65.45.34,65.45.34a7.19,7.19,0,0,0-4.82,3.85c4.58-2.41,12.09,1.45,12.09,1.45A14.67,14.67,0,0,0,64.87,7.9a10.43,10.43,0,0,1,8.86,2.79c-4.46.73-4,5.5-4,5.5s2,8-.38,10.69c0,0-7.92-2.78-11.92,1.65,0,0-8.69-4.22-16.51-.89C40.91,27.64,33.66,28.28,37.35,49.66Z"/><path class="cls-12" d="M34.58,13.58s-4,.85-4.75-1.64c0,0-2.26,6-1.34,16.63Z"/><path class="cls-12" d="M72.82,20.56a14.42,14.42,0,0,0-7.95-7.45s2.24,11.2,1.83,13.13c0,0,5.62-.3,5.28,9.88L71.89,48h.37A72.79,72.79,0,0,0,72.82,20.56Z"/><path class="cls-3" d="M35.11,47.49c.41,3-.82,5.71-2.72,6s-3.79-2-4.19-5,.81-5.7,2.73-6S34.71,44.45,35.11,47.49Z"/><g class="cls-14"><path class="cls-15" d="M32.77,46.59s0-.17-.08-.45a4.24,4.24,0,0,0-.38-1.1c-.21-.41-.56-.88-1-.91a1.18,1.18,0,0,0-.37,0l-.19.07a.85.85,0,0,1-.14.09,1.62,1.62,0,0,0-.49.65,2.89,2.89,0,0,0-.28.86,3.22,3.22,0,0,0-.07.86c0,.31,0,.62.08.89s.1.52.13.76.11.46.15.65.1.36.14.5.11.45.11.45l-.23-.4c-.06-.13-.16-.28-.24-.47l-.27-.63c-.09-.24-.16-.51-.25-.8s-.11-.57-.17-.88a3.63,3.63,0,0,1,0-1,4.41,4.41,0,0,1,.31-1,2.29,2.29,0,0,1,.72-.87,1.06,1.06,0,0,1,.28-.15,1.12,1.12,0,0,1,.26-.08,1.61,1.61,0,0,1,.58,0,1.45,1.45,0,0,1,.89.56,2.58,2.58,0,0,1,.4.77,3.79,3.79,0,0,1,.17,1.22A2.1,2.1,0,0,1,32.77,46.59Z"/></g><path class="cls-6" d="M32.77,46.59s.19-.32-1.05-.42c0,0-1.4.18-.68,1.7a4.55,4.55,0,0,1,.35,1c.09.51-.17,1.19.13,1.65a1,1,0,0,0,1.62-.39c.08-.5-.5-1.38-.78-1.75A1.19,1.19,0,0,1,32.77,46.59Z"/><g class="cls-14"><path class="cls-15" d="M33.14,50.09a.32.32,0,0,1,.09.08.85.85,0,0,1,.17.29.65.65,0,0,1,.05.21.53.53,0,0,1,0,.25,2.51,2.51,0,0,1,0,.27,1.92,1.92,0,0,1-.12.25.94.94,0,0,1-.16.23l-.19.17a.86.86,0,0,1-.4.21,1.56,1.56,0,0,1-.43.08,2.94,2.94,0,0,1,.22-.36,1.71,1.71,0,0,1,.11-.14c0-.06.06-.12.1-.17a1.67,1.67,0,0,1,.12-.16.83.83,0,0,0,.09-.16,1.73,1.73,0,0,0,.17-.33,1.22,1.22,0,0,0,.07-.17s0-.11,0-.16A2.87,2.87,0,0,0,33.14,50.09Z"/></g><path class="cls-12" d="M67.7,43.84a1.72,1.72,0,1,1-3.44-.05,1.72,1.72,0,0,1,3.44.05Z"/><path class="cls-4" d="M67.88,43.11a.78.78,0,1,1-.76-.79A.77.77,0,0,1,67.88,43.11Z"/><path class="cls-4" d="M66.7,44.15a.38.38,0,0,1-.38.36.37.37,0,0,1-.36-.37.37.37,0,0,1,.37-.36A.37.37,0,0,1,66.7,44.15Z"/><path class="cls-12" d="M63,39.46a2.24,2.24,0,0,1-.14-1.7,11.41,11.41,0,0,1,8.36.59,1.87,1.87,0,0,1-.09.95l-.42.83a.78.78,0,0,1-.29.23,9.29,9.29,0,0,0-7-.51A.88.88,0,0,1,63,39.46Z"/><path class="cls-12" d="M47,43.84a1.72,1.72,0,1,0,3.44-.05,1.72,1.72,0,0,0-3.44.05Z"/><path class="cls-4" d="M46.83,43.11a.78.78,0,1,0,.76-.79A.77.77,0,0,0,46.83,43.11Z"/><path class="cls-4" d="M48,44.15a.37.37,0,1,0,.36-.37A.36.36,0,0,0,48,44.15Z"/><path class="cls-12" d="M51.76,39.46a2.28,2.28,0,0,0,.15-1.7,11.41,11.41,0,0,0-8.36.59,1.76,1.76,0,0,0,.08.95l.42.83a.78.78,0,0,0,.29.23,9.31,9.31,0,0,1,7-.51A.86.86,0,0,0,51.76,39.46Z"/><path class="cls-4" d="M51.15,60.09c.12,3,2.88,5.36,6.27,5.36s6.15-2.39,6.27-5.36Z"/><path class="cls-16" d="M63.69,60.09s-.78.15-2,.26-2.74.19-4.31.19-3.13-.08-4.31-.19-2-.26-2-.26.79-.16,2-.27,2.75-.19,4.31-.19,3.14.08,4.31.2A18.59,18.59,0,0,1,63.69,60.09Z"/><path class="cls-16" d="M51.15,60.09s0,.07.05.2a5.13,5.13,0,0,0,.17.55,6.76,6.76,0,0,0,.34.8,5.72,5.72,0,0,0,.62.92,6,6,0,0,0,.91.9,6.63,6.63,0,0,0,1.21.74,6.19,6.19,0,0,0,1.43.49,6.61,6.61,0,0,0,1.54.17,7,7,0,0,0,.8,0,4.91,4.91,0,0,0,.75-.13,6.58,6.58,0,0,0,2.63-1.23,6.05,6.05,0,0,0,.92-.9,6.46,6.46,0,0,0,.62-.92,6.76,6.76,0,0,0,.34-.8,3.61,3.61,0,0,0,.16-.55l0-.2s0,.07,0,.2a3.8,3.8,0,0,1,0,.59,4.57,4.57,0,0,1-.16.92,4.78,4.78,0,0,1-.47,1.13,5.09,5.09,0,0,1-.9,1.17,5.51,5.51,0,0,1-1.3,1,6.44,6.44,0,0,1-1.64.68,8.17,8.17,0,0,1-.91.17,7,7,0,0,1-.91.07,8.39,8.39,0,0,1-1.81-.24A6.83,6.83,0,0,1,54,65.11a6.08,6.08,0,0,1-1.31-1,5.33,5.33,0,0,1-.89-1.17,4.78,4.78,0,0,1-.47-1.13,4,4,0,0,1-.16-.92,2.84,2.84,0,0,1,0-.59C51.15,60.16,51.15,60.09,51.15,60.09Z"/><path class="cls-16" d="M55.85,66.64l.49,0,1.08,0,1.09,0,.49,0v.12a2.57,2.57,0,0,1-.49.61,1.72,1.72,0,0,1-.51.33,1.52,1.52,0,0,1-.28.09l-.3,0-.29,0a.92.92,0,0,1-.28-.09,1.69,1.69,0,0,1-.51-.32,2.8,2.8,0,0,1-.49-.61Z"/><path class="cls-9" d="M61.2,81.57v51.11a119.44,119.44,0,0,0,8-32.13L64.6,98.4,70.54,93S70.34,82.32,61.2,81.57Z"/><polygon class="cls-4" points="51.63 79.77 57.25 79.77 65.06 82.34 57.31 86.71 51.63 79.77"/><polygon class="cls-10" points="65.06 82.34 57.31 86.71 51.63 79.77 57.25 84.51 65.06 82.34"/><path class="cls-5" d="M51,84.17a9,9,0,0,0-6.86-3.91s-3,6.57,1,10.14c0,0,4.57-.88,5.91-3.59Z"/><path class="cls-17" d="M45.86,89.13C43,86.55,43.78,82.4,44.43,80.3l-.32,0s-3,6.57,1,10.14c0,0,4.57-.88,5.91-3.59v-.17A11.18,11.18,0,0,1,45.86,89.13Z"/><path class="cls-18" d="M50.68,84.75l-.19-.1a1.34,1.34,0,0,0-.21-.11L50,84.42l-.33-.14-.39-.14c-.26-.11-.55-.2-.84-.29a2.3,2.3,0,0,0-.42-.14l-.42-.13-.39-.13-.36-.1c-.44-.14-.73-.26-.73-.26s.31,0,.78,0a5,5,0,0,1,.78.12c.29.07.59.13.88.23l.44.16a3.89,3.89,0,0,1,.41.19,3.8,3.8,0,0,1,.7.4,1.81,1.81,0,0,1,.25.19,1.72,1.72,0,0,1,.19.17A.74.74,0,0,1,50.68,84.75Z"/><path class="cls-18" d="M50.68,86.14a1.21,1.21,0,0,1-.14.16,1.72,1.72,0,0,1-.19.17,1.81,1.81,0,0,1-.25.19,3.8,3.8,0,0,1-.7.4,3.89,3.89,0,0,1-.41.19l-.44.15a7.19,7.19,0,0,1-.88.24,5,5,0,0,1-.78.12c-.47,0-.78,0-.78,0a6.4,6.4,0,0,1,.73-.26l.36-.1.39-.13.42-.13a3.45,3.45,0,0,0,.42-.14c.29-.09.58-.18.84-.29l.39-.14.33-.14.29-.12a1.34,1.34,0,0,0,.21-.11Z"/><path class="cls-18" d="M46.56,85.33l.18,0,.47,0,.66,0,.75,0,.75,0c.24,0,.46,0,.66,0a5.22,5.22,0,0,1,.65.07,5.62,5.62,0,0,1-.63.15c-.2,0-.42.07-.67.1a2.22,2.22,0,0,1-.37,0h-.39c-.26,0-.52,0-.77,0s-.47-.06-.66-.09A4.4,4.4,0,0,1,46.56,85.33Z"/><path class="cls-5" d="M53.78,84.17a9,9,0,0,1,6.85-3.91s3,6.57-1,10.14c0,0-4.57-.88-5.9-3.59Z"/><path class="cls-17" d="M58.89,89.13c2.85-2.58,2.08-6.73,1.43-8.83l.31,0s3,6.57-1,10.14c0,0-4.57-.88-5.9-3.59v-.17A11.14,11.14,0,0,0,58.89,89.13Z"/><path class="cls-18" d="M54.06,84.75l.19-.1a1.5,1.5,0,0,1,.22-.11l.28-.12.34-.14.38-.14c.26-.11.55-.2.84-.29a2.16,2.16,0,0,1,.43-.14l.42-.13.39-.13.35-.1c.44-.14.73-.26.73-.26s-.31,0-.77,0a4.9,4.9,0,0,0-.79.12c-.28.07-.59.13-.88.23l-.44.16c-.14,0-.28.13-.41.19a4.16,4.16,0,0,0-.7.4,1.81,1.81,0,0,0-.25.19l-.19.17A1.42,1.42,0,0,0,54.06,84.75Z"/><path class="cls-18" d="M54.06,86.14l.14.16.19.17a1.81,1.81,0,0,0,.25.19,4.16,4.16,0,0,0,.7.4c.13.06.27.14.41.19l.44.15a7.72,7.72,0,0,0,.88.24,4.9,4.9,0,0,0,.79.12c.46,0,.77,0,.77,0a6.4,6.4,0,0,0-.73-.26l-.35-.1-.39-.13-.42-.13a3.09,3.09,0,0,1-.43-.14c-.29-.09-.58-.18-.84-.29l-.38-.14-.34-.14-.28-.12a1.5,1.5,0,0,1-.22-.11Z"/><path class="cls-18" d="M58.19,85.33l-.18,0-.47,0-.66,0-.76,0-.75,0c-.24,0-.46,0-.66,0a5.55,5.55,0,0,0-.65.07,5.51,5.51,0,0,0,.64.15c.19,0,.42.07.66.1a2.34,2.34,0,0,0,.38,0h.38c.27,0,.53,0,.77,0s.47-.06.66-.09A4.35,4.35,0,0,0,58.19,85.33Z"/><rect class="cls-5" x="50.3" y="83.18" width="4.14" height="4.48" rx="1.23"/><path class="cls-17" d="M53.89,87.26H52.37a1.06,1.06,0,0,1-1.11-1V84.59a1.06,1.06,0,0,1,1.11-1h1.52l.24,0a1.21,1.21,0,0,0-.92-.43H51.53a1.24,1.24,0,0,0-1.23,1.23v2a1.23,1.23,0,0,0,1.23,1.23h1.68a1.23,1.23,0,0,0,.92-.42Z"/><path class="cls-3" d="M87.2,143.58a38.17,38.17,0,0,0,5,1.81.4.4,0,0,1,.17.6s-.17.3-.75.22c0,0-2.15-.39-4.87-1.15l2.85,1.39a.42.42,0,0,1,.1.53.48.48,0,0,1-.63.24l-3.2-.91s-4.1-.28-4.86-2c-.84-5,4.35-6.33,4.35-6.33.67-.31,1.31-.66,2-1l.52-.26c.76-.41,1.13.09,1.13.09a.8.8,0,0,1-.22,1.06l-3.11,2.2,7.11,1.65s1.21.26,1,1c0,0,0,.45-1.25.25l-5.66-.87s5,1.42,6.6,1.72a.54.54,0,0,1,.12.93s-.35.33-1.43,0c0,0-4.38-.93-5-1.17"/><path class="cls-3" d="M23.72,97.83l3.4,41.93,55.46,4.46.71-4.31-47.62-9.4L33.84,97.8s-.63-5.66-6.42-5.48A5.11,5.11,0,0,0,23.72,97.83Z"/><polygon class="cls-4" points="80.7 145.63 75.93 145.24 77.03 137.91 81.8 138.83 80.7 145.63"/><path class="cls-5" d="M78.75,145.89l-53-6.26L21.68,97.82c.22-6.22,5.69-6.22,5.69-6.22A6.27,6.27,0,0,1,34,96.65l2.32,31.27,43.33,9.77Z"/></g></g></g></svg>